<?xml version="1.0" encoding="utf-8"?>
<!-- Generator: Adobe Illustrator 16.0.3, SVG Export Plug-In . SVG Version: 6.00 Build 0)  -->
<!DOCTYPE svg PUBLIC "-//W3C//DTD SVG 1.1//EN" "http://www.w3.org/Graphics/SVG/1.1/DTD/svg11.dtd">
<svg version="1.1" id="Capa_1" xmlns="http://www.w3.org/2000/svg" xmlns:xlink="http://www.w3.org/1999/xlink" x="0px" y="0px"
	 width="54px" height="68px" viewBox="0 0 54 68" enable-background="new 0 0 54 68" xml:space="preserve">
<path d="M36.703,67.53l-0.039-5.804l0.039-5.338L23.25,59.715"/>
<path d="M36.088,55.924l2.537-0.658l-0.961,0.542c-0.576,0.349-0.961,0.968-0.961,1.663v1.084L36.088,55.924z"/>
<path d="M52.078,13.908L29.016,0.522c-1.191-0.696-2.652-0.696-3.844,0L2.109,13.947c-1.191,0.696-1.922,1.973-1.922,3.327v26.811
	c0,1.393,0.73,2.669,1.922,3.366l23.063,13.385c1.191,0.697,2.652,0.697,3.844,0l23.063-13.385C53.27,46.754,54,45.478,54,44.085
	V17.274C54,15.881,53.27,14.604,52.078,13.908z M24.428,41.169c0.341,1.352-0.017,2.842-1.103,3.884
	c-1.537,1.509-3.997,1.509-5.535,0c-1.653-1.586-1.653-4.217,0-5.803c1.538-1.509,3.998-1.509,5.535,0
	c0.07,0.067,0.12,0.146,0.184,0.217l9.349-5.402l1.922,1.083L24.428,41.169z M40.622,34.375c-1.537,1.509-3.997,1.509-5.534,0
	c-1.165-1.118-1.491-2.75-1.014-4.175l-0.063,0.035l-10.547-6.122c-0.049,0.053-0.086,0.113-0.139,0.164
	c-1.537,1.509-3.997,1.509-5.535,0c-1.653-1.586-1.653-4.217,0-5.803c1.538-1.509,3.998-1.509,5.535,0
	c1.104,1.059,1.453,2.58,1.083,3.949l10.631,6.206c0.019-0.018,0.03-0.04,0.049-0.058c1.537-1.509,3.997-1.509,5.534,0
	C42.275,30.158,42.275,32.789,40.622,34.375z"/>
</svg>
