<?xml version="1.0" encoding="utf-8"?>
<!-- Generator: Adobe Illustrator 16.0.3, SVG Export Plug-In . SVG Version: 6.00 Build 0)  -->
<!DOCTYPE svg PUBLIC "-//W3C//DTD SVG 1.1//EN" "http://www.w3.org/Graphics/SVG/1.1/DTD/svg11.dtd">
<svg version="1.1" id="Layer_1" xmlns="http://www.w3.org/2000/svg" xmlns:xlink="http://www.w3.org/1999/xlink" x="0px" y="0px"
	 width="200px" height="200px" viewBox="0 0 200 200" enable-background="new 0 0 200 200" xml:space="preserve">
<g>
	<rect x="9.167" y="32.167" fill="#1F2A54" width="180" height="137.667"/>
	<path fill="#FFFFFF" d="M177.166,22.5H22.832C10.242,22.5,0,32.744,0,45.333v109.333c0,12.59,10.242,22.834,22.832,22.834h154.334
		c12.59,0,22.834-10.244,22.834-22.834V45.333C200,32.744,189.756,22.5,177.166,22.5z M100,165.5H22.832
		C16.859,165.5,12,160.641,12,154.668V45.333C12,39.36,16.859,34.5,22.832,34.5H100V165.5z M182.58,76.129
		c-0.547,9.146-5.668,27.261-20.869,39.845c4.615,1.021,9.629,1.572,14.92,1.572v12c-10.551,0-20.238-1.918-28.469-5.324
		c-7.689,3.301-16.969,5.324-28.125,5.324v-12c5.133,0,9.924-0.5,14.365-1.498c-8.412-7.016-13.381-16.31-13.381-26.78h11.998
		c0,8.857,5.66,16.518,14.885,21.624c4.641-2.66,8.701-6.111,12.164-10.352c5.627-6.885,8.502-14.521,9.754-20.042h-49.785v-12
		h22.297V56.513h12V68.5h21.055c1.986,0,3.902,0.831,5.258,2.28C181.986,72.2,182.697,74.156,182.58,76.129z"/>
	<g>
		<g>
			<path fill="#FFFFFF" d="M43.035,118.262l-4.451,11.258H22.613L48.969,68.43h15.971l25.746,61.089H74.104l-4.363-11.258H43.035z
				 M56.475,83.876l-8.902,22.604h17.629L56.475,83.876z"/>
		</g>
	</g>
</g>
</svg>
